<!-- Generator: Adobe Illustrator 19.2.0, SVG Export Plug-In  -->
<svg version="1.1"
	 xmlns="http://www.w3.org/2000/svg" xmlns:xlink="http://www.w3.org/1999/xlink" xmlns:a="http://ns.adobe.com/AdobeSVGViewerExtensions/3.0/"
	 x="0px" y="0px" width="104.532px" height="16.051px" viewBox="0 0 104.532 16.051"
	 style="enable-background:new 0 0 104.532 16.051;" xml:space="preserve">
<style type="text/css">
	.st0{fill:#FFFFFF;}
	.st1{font-family:'Lato-Bold';}
	.st2{font-size:14px;}
	.st3{letter-spacing:1;}
</style>
<defs>
</defs>
<g>
	<g>
		<path class="st0" d="M9.66,12.061H7.77V7.637H3.017v4.424h-1.89V1.938h1.89v4.354H7.77V1.938h1.89V12.061z"/>
		<path class="st0" d="M15.204,12.061h-1.89V1.938h1.89V12.061z"/>
		<path class="st0" d="M29.057,3.779C29,3.878,28.941,3.949,28.878,3.993S28.737,4.06,28.644,4.06c-0.098,0-0.204-0.036-0.318-0.108
			c-0.115-0.072-0.251-0.153-0.41-0.241c-0.159-0.089-0.344-0.17-0.557-0.242s-0.463-0.108-0.752-0.108
			c-0.261,0-0.49,0.031-0.686,0.095c-0.196,0.062-0.36,0.15-0.493,0.263c-0.133,0.111-0.232,0.246-0.298,0.402
			s-0.098,0.328-0.098,0.515c0,0.237,0.066,0.437,0.199,0.595c0.133,0.159,0.309,0.294,0.529,0.406
			c0.219,0.111,0.469,0.212,0.749,0.301c0.28,0.089,0.567,0.184,0.861,0.283c0.294,0.101,0.581,0.218,0.861,0.351
			c0.28,0.133,0.53,0.301,0.749,0.504s0.396,0.451,0.528,0.745c0.133,0.294,0.2,0.651,0.2,1.071c0,0.457-0.078,0.886-0.234,1.284
			c-0.157,0.399-0.385,0.747-0.686,1.043c-0.301,0.297-0.668,0.53-1.103,0.7s-0.931,0.256-1.491,0.256
			c-0.322,0-0.639-0.032-0.952-0.095c-0.313-0.063-0.613-0.153-0.899-0.27c-0.287-0.116-0.557-0.257-0.809-0.42
			s-0.476-0.346-0.672-0.546l0.553-0.903c0.046-0.065,0.107-0.12,0.182-0.164c0.075-0.045,0.154-0.066,0.238-0.066
			c0.117,0,0.243,0.048,0.378,0.143c0.135,0.096,0.296,0.202,0.483,0.319c0.187,0.116,0.405,0.223,0.655,0.318
			s0.549,0.144,0.899,0.144c0.537,0,0.952-0.127,1.246-0.382c0.294-0.254,0.441-0.619,0.441-1.096c0-0.266-0.066-0.482-0.2-0.65
			c-0.133-0.168-0.309-0.31-0.528-0.424s-0.469-0.211-0.749-0.29c-0.28-0.08-0.564-0.166-0.854-0.26
			c-0.29-0.093-0.574-0.205-0.854-0.336c-0.28-0.13-0.53-0.301-0.749-0.511s-0.396-0.473-0.528-0.787
			c-0.133-0.315-0.2-0.704-0.2-1.166c0-0.368,0.074-0.728,0.221-1.078c0.147-0.35,0.36-0.66,0.641-0.931
			c0.28-0.271,0.625-0.487,1.036-0.651c0.411-0.163,0.882-0.245,1.414-0.245c0.597,0,1.148,0.094,1.652,0.28
			c0.504,0.187,0.933,0.448,1.288,0.784L29.057,3.779z"/>
		<path class="st0" d="M34.628,6.181h0.441c0.177,0,0.324-0.024,0.441-0.073c0.117-0.05,0.217-0.128,0.301-0.235l2.793-3.534
			c0.117-0.149,0.239-0.254,0.368-0.312c0.128-0.059,0.291-0.088,0.486-0.088h1.624l-3.409,4.207
			c-0.201,0.257-0.409,0.438-0.623,0.546c0.154,0.056,0.292,0.135,0.417,0.234c0.124,0.101,0.241,0.232,0.354,0.396l3.514,4.739
			h-1.659c-0.224,0-0.391-0.031-0.5-0.095c-0.11-0.062-0.202-0.155-0.277-0.276l-2.863-3.738c-0.089-0.126-0.191-0.214-0.308-0.266
			s-0.285-0.077-0.504-0.077h-0.595v4.452h-1.883V1.938h1.883V6.181z"/>
		<path class="st0" d="M48.089,8.141v3.92h-1.876v-3.92l-3.689-6.202h1.659c0.164,0,0.293,0.04,0.389,0.119s0.176,0.18,0.242,0.301
			l1.848,3.381c0.107,0.206,0.202,0.397,0.284,0.574c0.082,0.178,0.155,0.353,0.22,0.525c0.061-0.178,0.131-0.354,0.21-0.532
			c0.08-0.178,0.17-0.366,0.273-0.567l1.841-3.381c0.051-0.103,0.128-0.198,0.231-0.287c0.103-0.088,0.233-0.133,0.392-0.133h1.666
			L48.089,8.141z"/>
		<path class="st0" d="M63.203,7c0,0.741-0.124,1.423-0.371,2.044c-0.248,0.62-0.595,1.154-1.043,1.603
			c-0.448,0.448-0.987,0.796-1.617,1.043s-1.33,0.371-2.1,0.371h-3.857V1.938h3.857c0.77,0,1.47,0.125,2.1,0.375
			c0.63,0.249,1.169,0.597,1.617,1.043c0.448,0.445,0.795,0.979,1.043,1.599C63.079,5.576,63.203,6.258,63.203,7z M61.271,7
			c0-0.556-0.074-1.054-0.221-1.495c-0.147-0.44-0.359-0.814-0.637-1.12c-0.278-0.306-0.614-0.54-1.008-0.703
			s-0.839-0.245-1.333-0.245h-1.967v7.126h1.967c0.495,0,0.939-0.082,1.333-0.245s0.73-0.397,1.008-0.703
			c0.277-0.306,0.49-0.68,0.637-1.12C61.197,8.053,61.271,7.555,61.271,7z"/>
		<path class="st0" d="M68.151,12.061h-1.89V1.938h1.89V12.061z"/>
		<path class="st0" d="M70.608,1.938h1.512c0.163,0,0.296,0.04,0.399,0.119s0.18,0.182,0.231,0.308l2.387,6.174
			c0.079,0.201,0.155,0.422,0.228,0.662c0.072,0.24,0.141,0.491,0.207,0.752c0.051-0.261,0.11-0.512,0.178-0.752
			s0.141-0.461,0.221-0.662l2.373-6.174c0.037-0.107,0.11-0.205,0.22-0.294c0.11-0.088,0.244-0.133,0.402-0.133h1.519l-4.088,10.122
			h-1.701L70.608,1.938z"/>
		<path class="st0" d="M89.319,1.938v1.498h-4.494v2.807h3.542v1.449h-3.542v2.863h4.494v1.505h-6.384V1.938H89.319z"/>
	</g>
</g>
<polygon class="st0" points="104.532,5.527 99.912,10.524 94.757,5.566 "/>
</svg>