<!-- Generator: Adobe Illustrator 19.2.0, SVG Export Plug-In  -->
<svg version="1.1"
	 xmlns="http://www.w3.org/2000/svg" xmlns:xlink="http://www.w3.org/1999/xlink" xmlns:a="http://ns.adobe.com/AdobeSVGViewerExtensions/3.0/"
	 x="0px" y="0px" width="166.377px" height="39.998px" viewBox="0 0 166.377 39.998"
	 style="enable-background:new 0 0 166.377 39.998;" xml:space="preserve">
<style type="text/css">
	.st0{fill:#FFFFFE;}
	.st1{fill:#FFFFFF;}
	.st2{fill-rule:evenodd;clip-rule:evenodd;fill:#FFCE00;}
	.st3{fill:#F06723;}
	.st4{fill-rule:evenodd;clip-rule:evenodd;fill:#5C6670;}
	.st5{fill-rule:evenodd;clip-rule:evenodd;fill:#FFFFFE;}
	.st6{fill-rule:evenodd;clip-rule:evenodd;fill:#00567D;}
	.st7{fill-rule:evenodd;clip-rule:evenodd;fill:#2B5134;}
</style>
<defs>
</defs>
<g>
	<path class="st0" d="M23.431,32.578l-0.011,0.008l-2.283,1.793l-2.301-1.806C12.714,27.645,8.577,21.821,5.939,14.845
		c2.709-0.213,4.869-4.203,4.869-9.098c0-0.043-0.002-0.085-0.002-0.128h20.662c-0.001,0.043-0.003,0.085-0.003,0.128
		c0,4.895,2.16,8.886,4.869,9.098C33.695,21.824,29.555,27.649,23.431,32.578z"/>
	<g>
		<path class="st1" d="M163.85,24.16c0.233,0,0.457,0.03,0.672,0.091c0.215,0.06,0.416,0.145,0.603,0.255
			c0.187,0.109,0.357,0.241,0.511,0.395s0.285,0.324,0.395,0.511c0.109,0.187,0.194,0.388,0.255,0.603
			c0.06,0.215,0.09,0.439,0.09,0.672c0,0.23-0.03,0.453-0.09,0.668c-0.06,0.216-0.145,0.416-0.255,0.602
			c-0.11,0.186-0.241,0.355-0.395,0.509c-0.154,0.154-0.324,0.286-0.511,0.395c-0.187,0.109-0.388,0.194-0.603,0.255
			c-0.216,0.06-0.44,0.091-0.672,0.091s-0.456-0.03-0.67-0.091c-0.214-0.06-0.414-0.145-0.6-0.255
			c-0.186-0.109-0.356-0.241-0.51-0.395c-0.154-0.154-0.285-0.324-0.395-0.509c-0.109-0.186-0.194-0.386-0.255-0.6
			c-0.06-0.214-0.09-0.438-0.09-0.67c0-0.233,0.03-0.457,0.09-0.672c0.06-0.216,0.145-0.417,0.255-0.603
			c0.11-0.187,0.241-0.357,0.395-0.511s0.324-0.286,0.51-0.395c0.186-0.11,0.386-0.194,0.6-0.255
			C163.394,24.19,163.618,24.16,163.85,24.16z M163.85,28.803c0.194,0,0.38-0.025,0.557-0.075c0.178-0.05,0.344-0.121,0.498-0.212
			c0.154-0.091,0.294-0.2,0.421-0.328c0.126-0.127,0.234-0.27,0.323-0.427s0.158-0.326,0.207-0.506
			c0.049-0.18,0.073-0.369,0.073-0.568s-0.025-0.389-0.073-0.571c-0.049-0.182-0.118-0.353-0.207-0.511
			c-0.089-0.158-0.197-0.302-0.323-0.431c-0.127-0.129-0.267-0.239-0.421-0.332s-0.32-0.164-0.498-0.214
			c-0.178-0.05-0.364-0.075-0.557-0.075s-0.378,0.025-0.554,0.075c-0.176,0.05-0.34,0.121-0.493,0.214s-0.291,0.203-0.415,0.332
			s-0.231,0.272-0.32,0.431c-0.089,0.158-0.157,0.329-0.205,0.511c-0.048,0.182-0.072,0.373-0.072,0.571
			c0,0.296,0.053,0.573,0.159,0.831c0.106,0.258,0.251,0.482,0.436,0.672c0.185,0.19,0.402,0.34,0.653,0.45
			C163.291,28.748,163.561,28.803,163.85,28.803z M163.837,25.144c0.426,0,0.739,0.076,0.937,0.229
			c0.198,0.153,0.297,0.372,0.297,0.656c0,0.203-0.053,0.38-0.158,0.532c-0.105,0.151-0.268,0.262-0.489,0.33
			c0.05,0.032,0.093,0.07,0.128,0.114c0.035,0.045,0.069,0.097,0.101,0.156l0.619,1.05h-0.701c-0.103,0-0.174-0.038-0.216-0.113
			l-0.492-0.899c-0.023-0.032-0.048-0.056-0.077-0.073c-0.029-0.017-0.071-0.026-0.128-0.026h-0.188v1.111h-0.735v-3.067H163.837z
			 M163.772,26.577c0.119,0,0.215-0.01,0.289-0.029s0.132-0.049,0.174-0.087c0.042-0.039,0.071-0.087,0.087-0.144
			c0.016-0.057,0.024-0.122,0.024-0.195c0-0.071-0.007-0.133-0.021-0.186c-0.014-0.054-0.039-0.098-0.077-0.134
			c-0.038-0.035-0.09-0.061-0.156-0.079c-0.066-0.017-0.151-0.025-0.256-0.025h-0.366v0.879H163.772z"/>
	</g>
	<g>
		<g>
			<ellipse class="st2" cx="21.33" cy="14.615" rx="6.017" ry="5.959"/>
		</g>
		<path class="st3" d="M35.502,0.177c0-0.06,0.002-0.119,0.003-0.177H6.768c0.001,0.059,0.003,0.118,0.003,0.177
			c0,6.808-3.004,12.358-6.771,12.653c3.669,9.703,9.423,17.801,17.937,24.655l3.2,2.513l3.176-2.494l0.014-0.011
			c8.518-6.855,14.276-14.957,17.946-24.663C38.505,12.536,35.502,6.985,35.502,0.177z M23.431,32.578l-0.011,0.008l-2.283,1.793
			l-2.301-1.806C12.714,27.645,8.577,21.821,5.939,14.845c2.709-0.213,4.869-4.203,4.869-9.098c0-0.043-0.002-0.085-0.002-0.128
			h20.662c-0.001,0.043-0.003,0.085-0.003,0.128c0,4.895,2.16,8.886,4.869,9.098C33.695,21.824,29.555,27.649,23.431,32.578z"/>
		<path class="st4" d="M18.836,32.573l2.301,1.806l2.283-1.793l0.011-0.008c2.717-2.187,5.042-4.551,7.02-7.113L20.3,16.189
			l-8.882,8.737C13.481,27.694,15.933,30.235,18.836,32.573z"/>
		<path class="st5" d="M20.434,18.217l-5.367,8.353l3.681-2.886l-0.461,4.405l2.915-3.798l1.534,3.645l3.067-1.821l2.916,1.443
			c0.27-0.304,0.536-0.61,0.795-0.921L20.434,18.217z"/>
		<path class="st6" d="M28.783,14.626h-1.322c-1.311,0.149-2.981,0.726-2.841,1.994c0.034,0.298,0.196,0.56,0.595,0.609
			c-0.314-0.74,1.323-0.617,1.883-0.332c0.959,0.488,1.491,1.53,1.586,2.63c0.109,1.256-0.399,2.418-0.992,3.267
			c-0.021,0.03-0.045,0.059-0.067,0.09l2.826,2.582c1.782-2.308,3.279-4.78,4.526-7.428C33.501,16.43,31.639,15.012,28.783,14.626z"
			/>
		<path class="st7" d="M11.418,24.926l3.945-3.881c-0.254-0.392-0.502-0.778-0.729-1.142c0.109-0.167,0.666,0.021,0.806-0.109
			c-0.297-0.739-1.092-1.623-1.399-2.344c0.231,0.043,0.413,0.167,0.634,0.227c-0.486-0.809-1.002-1.568-1.502-2.356
			c0.234-0.031,0.631,0.034,0.919,0.055c0.069-0.071-0.053-0.169-0.067-0.187c-0.34-0.46-0.749-0.925-1.093-1.463
			c-0.376-0.589-1.021-2.203-1.021-2.203c-0.016,0.038-0.746,1.59-1.202,2.252c-0.408,0.591-0.921,1.119-1.335,1.631
			c-0.017,0.021-0.175,0.138-0.065,0.197c0.41-0.067,0.971-0.195,1.312-0.201c-0.59,0.864-1.444,1.702-2.012,2.586
			c0.308-0.095,0.667-0.247,0.992-0.327c-0.195,0.459-0.672,1.004-1.09,1.535c0.025,0.025-0.236,0.213-0.454,0.378
			c1.192,2.28,2.587,4.423,4.203,6.442c0.001,0,0.001,0.001,0.002,0.001C11.975,25.658,11.693,25.294,11.418,24.926z"/>
	</g>
	<g>
		<path class="st1" d="M43.224,29.386v-5.049h3.759c0,1.486,2.132,1.879,2.973,1.879c0.561,0,1.234-0.168,1.234-0.954
			c0-0.841-2.104-0.982-4.123-1.683c-1.907-0.673-3.731-1.851-3.731-4.488c0-2.861,2.945-4.067,4.937-4.067
			c1.907,0,3.59,0.982,4.18,2.188l0.224-1.851h3.45v5.049h-3.646c0-1.178-1.459-2.132-2.861-2.132c-0.589,0-1.094,0.309-1.094,1.01
			c0,0.785,1.655,1.122,3.45,1.739c2.132,0.729,4.516,1.543,4.516,4.488c0,2.637-2.496,4.207-5.217,4.207
			c-2.02,0-3.619-0.982-4.292-2.048l-0.253,1.711H43.224z"/>
		<path class="st1" d="M56.912,31.433h1.178V19.092h-1.178v-3.731h6.423l0.477,0.982c0.533-0.393,1.711-1.206,3.394-1.206
			c4.376,0,6.62,3.366,6.62,7.349c0,4.46-2.777,7.209-6.395,7.209c-2.328,0-3.45-0.926-3.646-1.094v2.833h1.515v3.675h-8.387V31.433
			z M65.776,19.092c-1.094,0-2.104,1.374-1.992,3.59c0,1.907,0.954,3.366,2.019,3.366c1.178,0,1.992-1.374,1.992-3.506
			C67.796,20.859,67.01,19.092,65.776,19.092z"/>
		<path class="st1" d="M74.976,22.317c0.028-4.684,3.815-7.293,7.686-7.293c4.432,0.056,7.714,2.721,7.798,7.405
			c0.056,4.656-3.394,7.321-7.657,7.321C78.791,29.751,74.92,27.282,74.976,22.317z M84.709,22.43c0-2.104-0.729-3.731-2.047-3.759
			c-1.094,0-1.935,1.627-1.935,3.674c0,2.3,0.898,3.815,2.076,3.815C84.008,26.16,84.709,24.533,84.709,22.43z"/>
		<path class="st1" d="M99.406,29.386h-7.938v-3.674h1.234v-6.704h-1.206v-3.646h5.273l0.841,1.795
			c0.729-1.346,1.459-2.497,4.348-2.497v5.049c-2.524,0-3.955,0.645-3.955,3.113v2.889h1.402V29.386z"/>
		<path class="st1" d="M102.8,15.361h1.515v-2.581l5.161-1.655v4.236h2.665v3.646h-2.665v4.993c0,0.954-0.196,2.244,0.898,2.244
			c0.365,0,1.234-0.252,1.767-0.477v3.59c-0.841,0.337-2.749,0.533-3.394,0.533c-4.207,0-4.348-2.3-4.432-5.89v-4.993H102.8V15.361z
			"/>
		<path class="st1" d="M112.869,22.317c0.028-4.684,3.815-7.293,7.686-7.293c4.432,0.056,7.713,2.721,7.798,7.405
			c0.056,4.656-3.394,7.321-7.658,7.321C116.684,29.751,112.813,27.282,112.869,22.317z M122.602,22.43
			c0-2.104-0.729-3.731-2.047-3.759c-1.094,0-1.935,1.627-1.935,3.674c0,2.3,0.898,3.815,2.076,3.815
			C121.901,26.16,122.602,24.533,122.602,22.43z"/>
		<path class="st1" d="M138.983,11.995h-1.29V8.349h6.984V25.74h1.346v3.646h-6.564l-0.477-1.038
			c-0.365,0.337-1.599,1.29-3.534,1.29c-3.955,0-6.507-3.506-6.507-7.405c0-4.376,3.057-7.152,6.507-7.152
			c1.992,0,3.001,0.729,3.534,1.066V11.995z M136.991,25.683c1.094,0,2.104-1.374,1.992-3.59c0-1.907-0.954-3.366-2.02-3.366
			c-1.178,0-1.992,1.374-1.992,3.506C134.972,23.916,135.757,25.683,136.991,25.683z"/>
		<path class="st1" d="M157.158,18.924h-1.29v-3.562h7.125v3.478h-1.347l-5.329,12.959c-0.814,1.739-1.963,3.983-6.031,3.955
			c-1.459-0.084-2.553-0.673-3.394-1.402l2.104-3.31c0.477,0.421,1.038,0.841,1.627,0.954c0.869,0.168,1.514-0.645,1.795-1.487
			l0.392-1.178l-5.47-10.378h-1.15v-3.59h8.639v3.562h-1.318l1.823,4.376L157.158,18.924z"/>
	</g>
</g>
</svg>