<!-- Generator: Adobe Illustrator 19.2.0, SVG Export Plug-In  -->
<svg version="1.1"
	 xmlns="http://www.w3.org/2000/svg" xmlns:xlink="http://www.w3.org/1999/xlink" xmlns:a="http://ns.adobe.com/AdobeSVGViewerExtensions/3.0/"
	 x="0px" y="0px" width="515.465px" height="28px" viewBox="0 0 515.465 28" style="enable-background:new 0 0 515.465 28;"
	 xml:space="preserve">
<style type="text/css">
	.st0{fill:#FFFFFF;}
	.st1{fill:#EE6622;}
	.st2{fill:#5C6670;}
	.st3{fill:#ABABAB;}
	.st4{font-family:'Lato-Bold';}
	.st5{font-size:14px;}
	.st6{letter-spacing:1;}
	.st7{font-size:15px;}
	.st8{font-family:'Lato-Regular';}
</style>
<defs>
</defs>
<g>
	<path class="st0" d="M465.264,13.773V3.65h3.486c0.663,0,1.23,0.063,1.701,0.189s0.857,0.306,1.159,0.539
		c0.301,0.233,0.521,0.516,0.661,0.847c0.14,0.331,0.21,0.704,0.21,1.12c0,0.237-0.035,0.465-0.105,0.683
		c-0.07,0.217-0.178,0.42-0.325,0.608c-0.147,0.189-0.334,0.36-0.56,0.515c-0.227,0.154-0.496,0.285-0.809,0.393
		c1.391,0.312,2.086,1.063,2.086,2.254c0,0.429-0.082,0.825-0.245,1.189c-0.164,0.364-0.402,0.678-0.714,0.941
		s-0.698,0.471-1.155,0.62c-0.458,0.149-0.98,0.224-1.568,0.224H465.264z M467.147,8.032h1.498c0.644,0,1.131-0.116,1.459-0.35
		c0.329-0.233,0.494-0.604,0.494-1.113c0-0.527-0.149-0.903-0.448-1.127c-0.299-0.224-0.766-0.336-1.4-0.336h-1.603V8.032z
		 M467.147,9.334v2.969h1.904c0.35,0,0.644-0.042,0.882-0.126c0.238-0.084,0.428-0.196,0.571-0.336
		c0.142-0.141,0.245-0.304,0.308-0.49s0.095-0.385,0.095-0.595c0-0.22-0.035-0.417-0.105-0.592s-0.18-0.324-0.329-0.448
		c-0.149-0.123-0.342-0.218-0.578-0.283c-0.235-0.065-0.519-0.099-0.85-0.099H467.147z"/>
	<path class="st0" d="M477.766,12.219h4.046v1.554h-5.929V3.65h1.883V12.219z"/>
	<path class="st0" d="M493.852,8.712c0,0.741-0.122,1.429-0.367,2.062c-0.245,0.632-0.592,1.179-1.04,1.641
		c-0.448,0.462-0.987,0.823-1.617,1.082c-0.63,0.259-1.33,0.389-2.1,0.389c-0.765,0-1.463-0.13-2.093-0.389s-1.17-0.62-1.621-1.082
		s-0.799-1.009-1.046-1.641c-0.248-0.633-0.371-1.32-0.371-2.062c0-0.742,0.124-1.43,0.371-2.062
		c0.247-0.633,0.596-1.18,1.046-1.642s0.991-0.823,1.621-1.082s1.328-0.389,2.093-0.389c0.514,0,0.997,0.06,1.449,0.179
		s0.868,0.287,1.246,0.504s0.717,0.481,1.019,0.791c0.301,0.311,0.556,0.657,0.767,1.04c0.21,0.383,0.37,0.798,0.479,1.246
		C493.797,7.745,493.852,8.217,493.852,8.712z M491.927,8.712c0-0.556-0.075-1.054-0.224-1.495c-0.149-0.44-0.361-0.815-0.637-1.123
		c-0.275-0.309-0.61-0.544-1.005-0.707c-0.394-0.163-0.839-0.245-1.333-0.245s-0.939,0.082-1.333,0.245
		c-0.394,0.163-0.73,0.398-1.008,0.707c-0.278,0.308-0.491,0.683-0.641,1.123c-0.149,0.441-0.224,0.939-0.224,1.495
		c0,0.555,0.074,1.053,0.224,1.494c0.149,0.44,0.363,0.814,0.641,1.12s0.614,0.54,1.008,0.703c0.395,0.163,0.839,0.245,1.333,0.245
		s0.939-0.082,1.333-0.245c0.395-0.163,0.729-0.397,1.005-0.703s0.487-0.68,0.637-1.12C491.852,9.765,491.927,9.267,491.927,8.712z"
		/>
	<path class="st0" d="M503.613,13.622c-0.581,0.175-1.203,0.263-1.866,0.263c-0.826,0-1.574-0.129-2.243-0.386
		c-0.67-0.256-1.242-0.613-1.715-1.07c-0.474-0.458-0.839-1.004-1.095-1.639c-0.257-0.634-0.385-1.327-0.385-2.078
		c0-0.761,0.124-1.459,0.371-2.094c0.247-0.635,0.599-1.181,1.054-1.638c0.455-0.457,1.006-0.812,1.655-1.064
		c0.648-0.252,1.376-0.378,2.184-0.378c0.411,0,0.794,0.033,1.151,0.099s0.688,0.155,0.994,0.27
		c0.306,0.114,0.584,0.253,0.836,0.416c0.252,0.164,0.483,0.343,0.693,0.539l-0.539,0.854c-0.084,0.135-0.193,0.218-0.329,0.248
		c-0.136,0.03-0.283-0.003-0.441-0.102c-0.154-0.089-0.308-0.177-0.462-0.266c-0.154-0.089-0.325-0.166-0.514-0.231
		c-0.189-0.065-0.402-0.119-0.637-0.161c-0.236-0.042-0.507-0.062-0.815-0.062c-0.5,0-0.951,0.084-1.354,0.252
		c-0.404,0.168-0.748,0.408-1.033,0.721s-0.504,0.688-0.658,1.127c-0.154,0.438-0.231,0.929-0.231,1.471
		c0,0.578,0.083,1.095,0.249,1.55c0.166,0.455,0.399,0.84,0.7,1.155c0.301,0.315,0.664,0.556,1.088,0.721
		c0.425,0.166,0.898,0.249,1.421,0.249c0.373,0,0.707-0.039,1.001-0.116c0.294-0.076,0.581-0.183,0.861-0.318v-1.841h-1.274
		c-0.122,0-0.216-0.033-0.284-0.102c-0.067-0.067-0.102-0.15-0.102-0.248V8.697h3.36v4.095
		C504.741,13.171,504.194,13.447,503.613,13.622z"/>
</g>
<g>
	<path class="st0" d="M254.422,28H1.578C0.707,28,0,27.293,0,26.422V1.578C0,0.707,0.707,0,1.578,0H254c1.105,0,2,0.895,2,2v24.422
		C256,27.293,255.293,28,254.422,28z"/>
	<path class="st0" d="M420.422,28H263.578c-0.872,0-1.578-0.707-1.578-1.578V1.578C262,0.707,262.707,0,263.578,0H420
		c1.105,0,2,0.895,2,2v24.422C422,27.293,421.293,28,420.422,28z"/>
	<path class="st1" d="M513.887,28h-84.875c-0.872,0-1.578-0.707-1.578-1.578V1.578c0-0.872,0.707-1.578,1.578-1.578h84.453
		c1.105,0,2,0.895,2,2v24.422C515.465,27.293,514.758,28,513.887,28z"/>
	<path class="st2" d="M20.776,20.233l-5.69-5.69c0.622-0.839,1.002-1.868,1.002-2.993c0-2.789-2.261-5.05-5.05-5.05
		c-2.789,0-5.05,2.261-5.05,5.05s2.261,5.05,5.05,5.05c1.015,0,1.957-0.306,2.748-0.822l5.722,5.722L20.776,20.233z M6.849,11.55
		c0-2.314,1.876-4.19,4.19-4.19s4.19,1.876,4.19,4.19s-1.876,4.19-4.19,4.19S6.849,13.864,6.849,11.55z"/>
	<path class="st2" d="M413.493,11.486c-1.985,4.1-6.02,11.324-6.02,11.324l-0.878-6.183l-6.183-0.911c0,0,7.192-4.002,11.324-5.987
		c1.53-0.749,1.985-1.204,2.473-0.716C414.664,9.469,414.209,9.924,413.493,11.486z"/>
	<g>
		<path class="st0" d="M455.985,10.656c-0.06,0.104-0.124,0.181-0.191,0.229c-0.067,0.048-0.151,0.071-0.251,0.071
			c-0.105,0-0.219-0.039-0.341-0.116c-0.123-0.078-0.269-0.164-0.439-0.259s-0.369-0.182-0.596-0.259
			c-0.228-0.078-0.496-0.116-0.806-0.116c-0.28,0-0.525,0.033-0.735,0.101c-0.21,0.068-0.386,0.162-0.529,0.281
			c-0.143,0.12-0.249,0.265-0.319,0.432c-0.07,0.168-0.105,0.352-0.105,0.552c0,0.255,0.071,0.467,0.214,0.637
			s0.331,0.315,0.566,0.436c0.235,0.12,0.502,0.228,0.802,0.322c0.3,0.095,0.607,0.196,0.922,0.304
			c0.315,0.107,0.623,0.232,0.923,0.375c0.3,0.143,0.567,0.322,0.802,0.54s0.424,0.483,0.566,0.799
			c0.143,0.314,0.214,0.697,0.214,1.147c0,0.49-0.084,0.948-0.251,1.376s-0.413,0.8-0.735,1.118
			c-0.323,0.317-0.716,0.567-1.181,0.75c-0.465,0.182-0.998,0.273-1.598,0.273c-0.345,0-0.685-0.034-1.02-0.102
			s-0.656-0.163-0.964-0.288s-0.596-0.275-0.866-0.45s-0.51-0.37-0.72-0.585l0.592-0.968c0.05-0.07,0.115-0.129,0.195-0.177
			c0.08-0.047,0.165-0.07,0.255-0.07c0.125,0,0.26,0.051,0.405,0.153s0.317,0.216,0.518,0.341c0.2,0.125,0.434,0.239,0.701,0.342
			s0.589,0.153,0.964,0.153c0.575,0,1.02-0.136,1.335-0.408s0.473-0.664,0.473-1.174c0-0.285-0.071-0.518-0.214-0.697
			c-0.143-0.181-0.332-0.332-0.566-0.454s-0.502-0.227-0.802-0.312c-0.3-0.085-0.605-0.177-0.915-0.277
			c-0.31-0.1-0.615-0.22-0.915-0.36c-0.3-0.14-0.568-0.322-0.803-0.547c-0.235-0.226-0.424-0.507-0.566-0.844
			c-0.143-0.338-0.214-0.754-0.214-1.249c0-0.395,0.079-0.78,0.236-1.155c0.157-0.375,0.386-0.707,0.686-0.997
			s0.67-0.522,1.11-0.697c0.44-0.176,0.945-0.263,1.515-0.263c0.64,0,1.23,0.1,1.77,0.3s1,0.48,1.38,0.84L455.985,10.656z"/>
		<path class="st0" d="M461.422,11.713c0.485,0,0.933,0.078,1.343,0.233c0.41,0.154,0.762,0.381,1.057,0.679
			c0.295,0.297,0.526,0.662,0.694,1.095s0.251,0.926,0.251,1.481c0,0.279-0.03,0.469-0.09,0.565
			c-0.06,0.098-0.175,0.146-0.345,0.146h-4.763c0.03,0.396,0.1,0.736,0.21,1.024c0.11,0.287,0.255,0.524,0.435,0.712
			c0.18,0.188,0.394,0.328,0.642,0.42c0.247,0.093,0.521,0.139,0.821,0.139c0.3,0,0.559-0.034,0.776-0.104
			c0.218-0.07,0.408-0.147,0.57-0.232c0.162-0.085,0.305-0.163,0.427-0.232c0.123-0.07,0.241-0.105,0.356-0.105
			c0.155,0,0.27,0.058,0.345,0.173l0.533,0.675c-0.205,0.24-0.435,0.441-0.69,0.604c-0.255,0.163-0.521,0.293-0.799,0.391
			c-0.277,0.097-0.56,0.166-0.848,0.206s-0.566,0.06-0.836,0.06c-0.535,0-1.033-0.089-1.493-0.266c-0.46-0.178-0.86-0.44-1.2-0.788
			c-0.34-0.348-0.607-0.777-0.802-1.29c-0.195-0.513-0.292-1.106-0.292-1.781c0-0.524,0.085-1.019,0.255-1.481
			c0.17-0.462,0.414-0.864,0.731-1.207c0.317-0.343,0.705-0.614,1.162-0.813C460.331,11.814,460.848,11.713,461.422,11.713z
			 M461.46,13.041c-0.54,0-0.962,0.152-1.268,0.457c-0.305,0.306-0.5,0.738-0.585,1.298h3.495c0-0.24-0.034-0.466-0.101-0.679
			c-0.068-0.213-0.169-0.398-0.304-0.559c-0.135-0.16-0.306-0.286-0.514-0.379S461.735,13.041,461.46,13.041z"/>
		<path class="st0" d="M471.187,19.528c-0.175,0-0.31-0.026-0.405-0.079c-0.095-0.052-0.17-0.158-0.225-0.318l-0.165-0.548
			c-0.195,0.176-0.385,0.329-0.57,0.462c-0.185,0.132-0.377,0.243-0.578,0.333c-0.2,0.091-0.414,0.158-0.641,0.203
			s-0.479,0.067-0.754,0.067c-0.325,0-0.625-0.044-0.9-0.132c-0.275-0.087-0.513-0.218-0.712-0.394
			c-0.2-0.175-0.355-0.393-0.465-0.652c-0.11-0.26-0.165-0.562-0.165-0.907c0-0.29,0.076-0.576,0.229-0.859
			c0.152-0.282,0.406-0.537,0.761-0.765s0.828-0.416,1.417-0.566c0.59-0.149,1.325-0.234,2.205-0.255v-0.45
			c0-0.515-0.11-0.896-0.33-1.144c-0.22-0.247-0.538-0.371-0.953-0.371c-0.3,0-0.548,0.035-0.746,0.105
			c-0.197,0.069-0.371,0.148-0.521,0.235c-0.15,0.088-0.287,0.167-0.409,0.236c-0.123,0.07-0.259,0.105-0.409,0.105
			c-0.13,0-0.24-0.034-0.33-0.102c-0.09-0.067-0.163-0.146-0.218-0.236l-0.33-0.592c0.885-0.811,1.95-1.216,3.195-1.216
			c0.45,0,0.852,0.074,1.208,0.222c0.355,0.147,0.655,0.353,0.9,0.615c0.245,0.263,0.431,0.576,0.559,0.941
			c0.127,0.364,0.191,0.765,0.191,1.199v4.86H471.187z M468.42,18.373c0.38,0,0.708-0.068,0.986-0.206
			c0.278-0.138,0.549-0.346,0.814-0.626v-1.298c-0.54,0.025-0.991,0.071-1.354,0.139c-0.363,0.067-0.654,0.154-0.874,0.259
			c-0.22,0.105-0.377,0.228-0.473,0.368c-0.095,0.14-0.142,0.292-0.142,0.457c0,0.325,0.096,0.558,0.289,0.697
			C467.858,18.304,468.11,18.373,468.42,18.373z"/>
		<path class="st0" d="M473.767,19.528v-7.695h1.087c0.19,0,0.323,0.034,0.397,0.102c0.075,0.067,0.125,0.188,0.15,0.363l0.105,0.87
			c0.245-0.46,0.533-0.821,0.863-1.083c0.33-0.263,0.72-0.395,1.17-0.395c0.355,0,0.64,0.078,0.855,0.232l-0.12,1.388
			c-0.025,0.09-0.061,0.154-0.108,0.191c-0.048,0.038-0.111,0.057-0.191,0.057c-0.075,0-0.187-0.013-0.334-0.038
			c-0.147-0.024-0.291-0.037-0.431-0.037c-0.205,0-0.388,0.03-0.547,0.09c-0.16,0.061-0.304,0.146-0.431,0.259
			s-0.24,0.249-0.338,0.409c-0.097,0.16-0.188,0.342-0.273,0.547v4.74H473.767z"/>
		<path class="st0" d="M484.657,13.461c-0.055,0.07-0.109,0.125-0.162,0.165c-0.052,0.04-0.128,0.06-0.229,0.06
			c-0.095,0-0.188-0.028-0.278-0.086c-0.09-0.058-0.197-0.122-0.322-0.195c-0.125-0.072-0.274-0.137-0.446-0.194
			s-0.386-0.087-0.641-0.087c-0.325,0-0.61,0.06-0.855,0.177c-0.245,0.117-0.449,0.286-0.611,0.506
			c-0.163,0.221-0.284,0.486-0.364,0.799s-0.12,0.666-0.12,1.062c0,0.41,0.044,0.774,0.131,1.095s0.214,0.589,0.379,0.807
			c0.165,0.217,0.365,0.382,0.6,0.495c0.235,0.112,0.5,0.168,0.795,0.168c0.295,0,0.534-0.036,0.716-0.108
			c0.182-0.072,0.336-0.152,0.461-0.24c0.125-0.087,0.234-0.167,0.326-0.24c0.093-0.072,0.196-0.108,0.312-0.108
			c0.15,0,0.262,0.058,0.337,0.173l0.533,0.675c-0.205,0.24-0.428,0.441-0.668,0.604c-0.24,0.163-0.489,0.293-0.746,0.391
			c-0.257,0.097-0.522,0.166-0.795,0.206s-0.544,0.06-0.814,0.06c-0.475,0-0.922-0.089-1.342-0.266
			c-0.42-0.178-0.788-0.437-1.103-0.776s-0.564-0.757-0.746-1.249c-0.183-0.492-0.274-1.054-0.274-1.684
			c0-0.565,0.081-1.089,0.244-1.571s0.401-0.9,0.716-1.253s0.705-0.629,1.17-0.828c0.465-0.2,1-0.301,1.605-0.301
			c0.575,0,1.079,0.093,1.511,0.278c0.433,0.185,0.821,0.449,1.167,0.795L484.657,13.461z"/>
		<path class="st0" d="M486.374,19.528V8.384h1.853v4.282c0.3-0.285,0.63-0.515,0.99-0.69c0.36-0.175,0.783-0.263,1.268-0.263
			c0.42,0,0.792,0.071,1.118,0.214c0.325,0.143,0.596,0.343,0.813,0.601c0.218,0.257,0.383,0.564,0.495,0.922
			c0.113,0.357,0.169,0.752,0.169,1.182v4.897h-1.853v-4.897c0-0.47-0.107-0.834-0.323-1.091c-0.215-0.258-0.542-0.387-0.982-0.387
			c-0.32,0-0.62,0.072-0.9,0.218c-0.28,0.145-0.545,0.342-0.795,0.592v5.565H486.374z"/>
	</g>
</g>
<g>
	<path class="st3" d="M33.115,10.84c-0.042,0.07-0.087,0.123-0.137,0.157c-0.049,0.035-0.108,0.053-0.178,0.053
		c-0.08,0-0.173-0.04-0.28-0.119c-0.107-0.079-0.241-0.167-0.402-0.262s-0.355-0.183-0.581-0.263
		c-0.227-0.079-0.5-0.119-0.822-0.119c-0.304,0-0.571,0.041-0.802,0.123s-0.425,0.192-0.581,0.333s-0.274,0.305-0.354,0.494
		c-0.079,0.189-0.119,0.393-0.119,0.612c0,0.28,0.069,0.512,0.207,0.697c0.138,0.184,0.32,0.342,0.546,0.472
		c0.226,0.131,0.483,0.244,0.77,0.34c0.287,0.096,0.581,0.195,0.882,0.297c0.301,0.103,0.595,0.218,0.882,0.346
		c0.287,0.128,0.544,0.291,0.77,0.487c0.227,0.196,0.408,0.437,0.546,0.721c0.138,0.285,0.207,0.635,0.207,1.05
		c0,0.438-0.075,0.851-0.224,1.235c-0.149,0.385-0.368,0.72-0.655,1.004c-0.287,0.285-0.639,0.509-1.057,0.672
		c-0.417,0.163-0.892,0.245-1.424,0.245c-0.653,0-1.246-0.118-1.778-0.354c-0.532-0.235-0.987-0.554-1.365-0.955l0.392-0.644
		c0.037-0.051,0.083-0.095,0.137-0.13c0.053-0.035,0.113-0.052,0.178-0.052c0.061,0,0.129,0.024,0.207,0.073
		c0.077,0.049,0.165,0.111,0.263,0.186c0.098,0.075,0.21,0.157,0.336,0.245c0.126,0.089,0.27,0.17,0.43,0.245
		c0.161,0.075,0.344,0.136,0.55,0.186c0.205,0.049,0.436,0.073,0.693,0.073c0.322,0,0.609-0.044,0.861-0.133
		s0.466-0.213,0.641-0.375c0.175-0.161,0.309-0.354,0.402-0.578c0.094-0.224,0.14-0.474,0.14-0.749c0-0.303-0.069-0.552-0.207-0.746
		c-0.138-0.193-0.318-0.355-0.542-0.486c-0.224-0.13-0.48-0.241-0.77-0.333c-0.289-0.091-0.583-0.184-0.882-0.28
		c-0.299-0.096-0.593-0.207-0.882-0.333c-0.29-0.126-0.546-0.29-0.77-0.49c-0.224-0.201-0.405-0.451-0.542-0.752
		c-0.138-0.301-0.207-0.673-0.207-1.116c0-0.355,0.069-0.698,0.207-1.029c0.137-0.331,0.338-0.625,0.602-0.882
		s0.588-0.462,0.973-0.616C29.758,9.237,30.2,9.16,30.7,9.16c0.56,0,1.07,0.089,1.529,0.266c0.46,0.177,0.865,0.434,1.215,0.77
		L33.115,10.84z"/>
	<path class="st3" d="M38.113,12.1c0.424,0,0.818,0.071,1.179,0.214c0.362,0.142,0.674,0.348,0.938,0.616
		c0.264,0.269,0.47,0.6,0.62,0.994s0.224,0.843,0.224,1.347c0,0.196-0.021,0.327-0.063,0.392c-0.042,0.065-0.122,0.098-0.238,0.098
		h-4.739c0.009,0.448,0.07,0.838,0.182,1.169c0.112,0.332,0.266,0.608,0.462,0.83s0.429,0.387,0.7,0.497
		c0.271,0.109,0.574,0.165,0.91,0.165c0.312,0,0.582-0.036,0.809-0.109c0.226-0.072,0.421-0.15,0.584-0.234s0.3-0.162,0.41-0.234
		c0.109-0.072,0.204-0.108,0.283-0.108c0.103,0,0.182,0.04,0.238,0.119l0.35,0.455c-0.154,0.187-0.338,0.349-0.553,0.487
		s-0.444,0.25-0.689,0.339s-0.498,0.155-0.76,0.2c-0.261,0.044-0.52,0.066-0.777,0.066c-0.49,0-0.941-0.083-1.354-0.249
		s-0.77-0.408-1.071-0.728c-0.301-0.32-0.536-0.715-0.704-1.187s-0.252-1.013-0.252-1.624c0-0.495,0.076-0.957,0.228-1.386
		c0.151-0.429,0.37-0.801,0.654-1.116s0.632-0.562,1.043-0.742S37.599,12.1,38.113,12.1z M38.141,13.017
		c-0.602,0-1.076,0.174-1.421,0.521s-0.56,0.83-0.644,1.446h3.878c0-0.29-0.041-0.554-0.123-0.794
		c-0.082-0.241-0.201-0.448-0.357-0.623c-0.156-0.175-0.346-0.311-0.57-0.406S38.425,13.017,38.141,13.017z"/>
	<path class="st3" d="M47.108,19.303c-0.122,0-0.215-0.02-0.28-0.06s-0.117-0.118-0.154-0.234l-0.14-0.665
		c-0.187,0.168-0.37,0.318-0.549,0.452c-0.18,0.133-0.367,0.245-0.56,0.336c-0.194,0.091-0.401,0.161-0.623,0.21
		c-0.222,0.049-0.468,0.073-0.738,0.073c-0.275,0-0.535-0.038-0.777-0.115s-0.454-0.192-0.633-0.347
		c-0.18-0.154-0.322-0.349-0.427-0.584c-0.105-0.235-0.157-0.515-0.157-0.836c0-0.28,0.077-0.549,0.231-0.809
		c0.154-0.259,0.403-0.489,0.749-0.689c0.345-0.201,0.795-0.365,1.351-0.494c0.555-0.128,1.236-0.202,2.044-0.22v-0.553
		c0-0.55-0.119-0.967-0.357-1.25c-0.238-0.282-0.586-0.423-1.043-0.423c-0.308,0-0.566,0.039-0.773,0.116
		c-0.208,0.077-0.388,0.163-0.539,0.259c-0.152,0.096-0.283,0.182-0.392,0.259c-0.11,0.077-0.218,0.116-0.326,0.116
		c-0.084,0-0.156-0.022-0.217-0.066c-0.061-0.044-0.112-0.099-0.154-0.165l-0.224-0.399c0.392-0.378,0.814-0.661,1.267-0.847
		s0.955-0.28,1.505-0.28c0.396,0,0.749,0.065,1.057,0.196c0.308,0.131,0.567,0.312,0.777,0.546s0.369,0.516,0.476,0.847
		c0.107,0.332,0.161,0.695,0.161,1.092v4.536H47.108z M44.434,18.54c0.22,0,0.42-0.022,0.602-0.066
		c0.182-0.044,0.354-0.107,0.515-0.189s0.315-0.182,0.462-0.301c0.147-0.119,0.291-0.253,0.431-0.403v-1.47
		c-0.574,0.019-1.063,0.064-1.467,0.136c-0.403,0.073-0.732,0.167-0.987,0.284s-0.438,0.254-0.553,0.413
		c-0.115,0.159-0.172,0.336-0.172,0.532c0,0.187,0.03,0.348,0.091,0.483c0.061,0.136,0.144,0.247,0.249,0.333
		c0.105,0.086,0.229,0.149,0.371,0.189C44.118,18.52,44.27,18.54,44.434,18.54z"/>
	<path class="st3" d="M49.558,19.303v-7.091h0.714c0.135,0,0.229,0.025,0.28,0.077c0.051,0.052,0.086,0.14,0.105,0.266l0.077,1.078
		c0.224-0.485,0.5-0.865,0.83-1.138c0.329-0.273,0.729-0.409,1.2-0.409c0.149,0,0.293,0.016,0.431,0.049s0.26,0.084,0.368,0.154
		l-0.091,0.931c-0.028,0.117-0.098,0.175-0.21,0.175c-0.065,0-0.161-0.014-0.287-0.042c-0.126-0.028-0.268-0.042-0.427-0.042
		c-0.224,0-0.425,0.034-0.602,0.102c-0.177,0.068-0.335,0.166-0.473,0.294c-0.138,0.128-0.26,0.286-0.367,0.473
		c-0.107,0.187-0.206,0.401-0.294,0.644v4.48H49.558z"/>
	<path class="st3" d="M59.302,13.472c-0.037,0.051-0.075,0.091-0.112,0.119c-0.038,0.028-0.089,0.042-0.154,0.042
		c-0.07,0-0.147-0.029-0.231-0.087c-0.084-0.059-0.188-0.123-0.312-0.193c-0.124-0.07-0.275-0.134-0.455-0.192
		c-0.18-0.058-0.4-0.087-0.662-0.087c-0.35,0-0.658,0.062-0.924,0.186c-0.266,0.124-0.489,0.302-0.669,0.536
		s-0.315,0.516-0.406,0.847c-0.091,0.332-0.137,0.703-0.137,1.113c0,0.429,0.049,0.811,0.147,1.145
		c0.098,0.333,0.237,0.613,0.417,0.84s0.397,0.399,0.651,0.518c0.254,0.119,0.54,0.178,0.857,0.178c0.303,0,0.553-0.036,0.749-0.108
		c0.196-0.072,0.358-0.153,0.486-0.241c0.128-0.089,0.236-0.169,0.322-0.242c0.086-0.072,0.171-0.108,0.255-0.108
		c0.103,0,0.182,0.04,0.238,0.119l0.35,0.455c-0.154,0.191-0.329,0.355-0.525,0.49c-0.196,0.135-0.407,0.249-0.634,0.339
		c-0.226,0.091-0.463,0.158-0.71,0.2c-0.247,0.042-0.499,0.063-0.756,0.063c-0.443,0-0.855-0.082-1.235-0.245s-0.71-0.4-0.991-0.71
		c-0.28-0.311-0.5-0.692-0.658-1.145c-0.159-0.453-0.238-0.968-0.238-1.547c0-0.527,0.074-1.015,0.221-1.463
		c0.147-0.448,0.361-0.834,0.644-1.158c0.282-0.324,0.63-0.578,1.043-0.76c0.413-0.182,0.888-0.273,1.424-0.273
		c0.5,0,0.939,0.081,1.319,0.242s0.718,0.388,1.012,0.683L59.302,13.472z"/>
	<path class="st3" d="M61.051,19.303V8.992h1.253v4.172c0.303-0.322,0.639-0.58,1.008-0.773c0.369-0.193,0.793-0.291,1.274-0.291
		c0.387,0,0.729,0.064,1.025,0.192c0.296,0.128,0.544,0.311,0.742,0.546c0.198,0.235,0.349,0.519,0.452,0.851
		c0.103,0.331,0.154,0.697,0.154,1.099v4.515h-1.253v-4.515c0-0.537-0.123-0.953-0.368-1.25s-0.617-0.444-1.116-0.444
		c-0.374,0-0.72,0.089-1.04,0.266c-0.32,0.177-0.613,0.417-0.878,0.721v5.222H61.051z"/>
	<path class="st3" d="M75.436,12.1c0.518,0,0.984,0.086,1.4,0.259c0.416,0.172,0.77,0.417,1.064,0.735s0.519,0.701,0.676,1.151
		c0.156,0.451,0.234,0.953,0.234,1.509c0,0.56-0.078,1.064-0.234,1.512c-0.157,0.448-0.382,0.831-0.676,1.148
		c-0.294,0.317-0.648,0.562-1.064,0.731c-0.416,0.17-0.882,0.256-1.4,0.256c-0.523,0-0.993-0.085-1.411-0.256
		c-0.417-0.17-0.773-0.414-1.067-0.731c-0.294-0.317-0.519-0.7-0.676-1.148c-0.156-0.448-0.234-0.952-0.234-1.512
		c0-0.556,0.078-1.058,0.234-1.509c0.157-0.45,0.382-0.834,0.676-1.151s0.65-0.562,1.067-0.735
		C74.443,12.186,74.914,12.1,75.436,12.1z M75.436,18.428c0.7,0,1.223-0.234,1.568-0.704c0.345-0.469,0.518-1.124,0.518-1.963
		c0-0.845-0.173-1.502-0.518-1.974c-0.345-0.471-0.868-0.707-1.568-0.707c-0.355,0-0.664,0.061-0.928,0.182
		c-0.264,0.122-0.483,0.296-0.658,0.525c-0.175,0.229-0.306,0.51-0.392,0.844s-0.129,0.71-0.129,1.13
		c0,0.84,0.174,1.495,0.521,1.963C74.199,18.193,74.727,18.428,75.436,18.428z"/>
	<path class="st3" d="M81.561,12.212v4.522c0,0.537,0.123,0.952,0.367,1.246c0.245,0.294,0.62,0.441,1.124,0.441
		c0.364,0,0.707-0.086,1.029-0.259c0.322-0.172,0.618-0.413,0.889-0.721v-5.229h1.246v7.091h-0.742c-0.178,0-0.29-0.086-0.336-0.259
		l-0.098-0.763c-0.308,0.341-0.653,0.615-1.036,0.822c-0.383,0.208-0.821,0.312-1.316,0.312c-0.387,0-0.729-0.064-1.025-0.192
		s-0.545-0.309-0.746-0.542s-0.351-0.516-0.452-0.847c-0.1-0.331-0.15-0.697-0.15-1.099v-4.522H81.561z"/>
	<path class="st3" d="M90.367,19.415c-0.56,0-0.991-0.156-1.292-0.469c-0.301-0.312-0.452-0.763-0.452-1.351v-4.34H87.77
		c-0.075,0-0.138-0.022-0.189-0.066c-0.051-0.044-0.077-0.113-0.077-0.207v-0.497l1.162-0.147l0.287-2.191
		c0.014-0.07,0.045-0.127,0.095-0.172c0.049-0.044,0.113-0.066,0.192-0.066h0.63v2.443h2.051v0.903H89.87v4.256
		c0,0.299,0.072,0.521,0.217,0.665c0.145,0.145,0.332,0.217,0.56,0.217c0.131,0,0.244-0.018,0.34-0.052
		c0.095-0.035,0.178-0.074,0.249-0.116c0.07-0.042,0.129-0.081,0.178-0.115c0.049-0.035,0.092-0.053,0.129-0.053
		c0.065,0,0.124,0.04,0.175,0.119l0.364,0.595c-0.215,0.201-0.474,0.358-0.777,0.473S90.689,19.415,90.367,19.415z"/>
	<path class="st3" d="M98.333,19.303c-0.177,0-0.289-0.086-0.336-0.259l-0.112-0.861c-0.304,0.369-0.65,0.664-1.04,0.886
		s-0.836,0.333-1.34,0.333c-0.406,0-0.775-0.078-1.106-0.235c-0.331-0.156-0.613-0.386-0.847-0.689
		c-0.233-0.303-0.413-0.681-0.539-1.134s-0.189-0.973-0.189-1.561c0-0.522,0.07-1.009,0.21-1.459s0.341-0.841,0.602-1.172
		c0.261-0.332,0.582-0.592,0.962-0.781s0.809-0.283,1.285-0.283c0.434,0,0.806,0.073,1.116,0.22c0.311,0.147,0.587,0.354,0.83,0.62
		V8.992h1.246v10.311H98.333z M95.911,18.393c0.411,0,0.769-0.093,1.075-0.28s0.586-0.45,0.843-0.791v-3.423
		c-0.233-0.308-0.485-0.525-0.756-0.651c-0.271-0.126-0.574-0.189-0.91-0.189c-0.658,0-1.165,0.236-1.519,0.707
		c-0.354,0.472-0.532,1.144-0.532,2.016c0,0.462,0.04,0.857,0.119,1.187c0.08,0.329,0.196,0.6,0.35,0.812
		c0.154,0.212,0.343,0.368,0.567,0.465C95.372,18.344,95.626,18.393,95.911,18.393z"/>
	<path class="st3" d="M104.038,12.1c0.518,0,0.984,0.086,1.4,0.259c0.416,0.172,0.77,0.417,1.064,0.735s0.519,0.701,0.676,1.151
		c0.156,0.451,0.234,0.953,0.234,1.509c0,0.56-0.078,1.064-0.234,1.512c-0.157,0.448-0.382,0.831-0.676,1.148
		c-0.294,0.317-0.648,0.562-1.064,0.731c-0.416,0.17-0.882,0.256-1.4,0.256c-0.523,0-0.993-0.085-1.411-0.256
		c-0.417-0.17-0.773-0.414-1.067-0.731c-0.294-0.317-0.519-0.7-0.676-1.148c-0.156-0.448-0.234-0.952-0.234-1.512
		c0-0.556,0.078-1.058,0.234-1.509c0.157-0.45,0.382-0.834,0.676-1.151s0.65-0.562,1.067-0.735
		C103.045,12.186,103.515,12.1,104.038,12.1z M104.038,18.428c0.7,0,1.223-0.234,1.568-0.704c0.345-0.469,0.518-1.124,0.518-1.963
		c0-0.845-0.173-1.502-0.518-1.974c-0.345-0.471-0.868-0.707-1.568-0.707c-0.355,0-0.664,0.061-0.928,0.182
		c-0.264,0.122-0.483,0.296-0.658,0.525c-0.175,0.229-0.306,0.51-0.392,0.844s-0.129,0.71-0.129,1.13
		c0,0.84,0.174,1.495,0.521,1.963C102.8,18.193,103.329,18.428,104.038,18.428z"/>
	<path class="st3" d="M111.976,12.1c0.518,0,0.984,0.086,1.4,0.259c0.416,0.172,0.77,0.417,1.064,0.735s0.519,0.701,0.676,1.151
		c0.156,0.451,0.234,0.953,0.234,1.509c0,0.56-0.078,1.064-0.234,1.512c-0.157,0.448-0.382,0.831-0.676,1.148
		c-0.294,0.317-0.648,0.562-1.064,0.731c-0.416,0.17-0.882,0.256-1.4,0.256c-0.523,0-0.993-0.085-1.411-0.256
		c-0.417-0.17-0.773-0.414-1.067-0.731c-0.294-0.317-0.519-0.7-0.676-1.148c-0.156-0.448-0.234-0.952-0.234-1.512
		c0-0.556,0.078-1.058,0.234-1.509c0.157-0.45,0.382-0.834,0.676-1.151s0.65-0.562,1.067-0.735
		C110.983,12.186,111.453,12.1,111.976,12.1z M111.976,18.428c0.7,0,1.223-0.234,1.568-0.704c0.345-0.469,0.518-1.124,0.518-1.963
		c0-0.845-0.173-1.502-0.518-1.974c-0.345-0.471-0.868-0.707-1.568-0.707c-0.355,0-0.664,0.061-0.928,0.182
		c-0.264,0.122-0.483,0.296-0.658,0.525c-0.175,0.229-0.306,0.51-0.392,0.844s-0.129,0.71-0.129,1.13
		c0,0.84,0.174,1.495,0.521,1.963C110.738,18.193,111.267,18.428,111.976,18.428z"/>
	<path class="st3" d="M116.924,19.303v-7.091h0.714c0.135,0,0.229,0.025,0.28,0.077c0.051,0.052,0.086,0.14,0.105,0.266l0.077,1.078
		c0.224-0.485,0.5-0.865,0.83-1.138c0.329-0.273,0.729-0.409,1.2-0.409c0.149,0,0.293,0.016,0.431,0.049s0.26,0.084,0.368,0.154
		l-0.091,0.931c-0.028,0.117-0.098,0.175-0.21,0.175c-0.065,0-0.161-0.014-0.287-0.042c-0.126-0.028-0.268-0.042-0.427-0.042
		c-0.224,0-0.425,0.034-0.602,0.102c-0.177,0.068-0.335,0.166-0.473,0.294c-0.138,0.128-0.26,0.286-0.367,0.473
		c-0.107,0.187-0.206,0.401-0.294,0.644v4.48H116.924z"/>
	<path class="st3" d="M129.819,19.303c-0.122,0-0.215-0.02-0.28-0.06s-0.117-0.118-0.154-0.234l-0.14-0.665
		c-0.187,0.168-0.37,0.318-0.549,0.452c-0.18,0.133-0.367,0.245-0.56,0.336c-0.194,0.091-0.401,0.161-0.623,0.21
		c-0.222,0.049-0.468,0.073-0.738,0.073c-0.275,0-0.535-0.038-0.777-0.115s-0.454-0.192-0.633-0.347
		c-0.18-0.154-0.322-0.349-0.427-0.584c-0.105-0.235-0.157-0.515-0.157-0.836c0-0.28,0.077-0.549,0.231-0.809
		c0.154-0.259,0.403-0.489,0.749-0.689c0.345-0.201,0.795-0.365,1.351-0.494c0.555-0.128,1.236-0.202,2.044-0.22v-0.553
		c0-0.55-0.119-0.967-0.357-1.25c-0.238-0.282-0.586-0.423-1.043-0.423c-0.308,0-0.566,0.039-0.773,0.116
		c-0.208,0.077-0.388,0.163-0.539,0.259c-0.152,0.096-0.283,0.182-0.392,0.259c-0.11,0.077-0.218,0.116-0.326,0.116
		c-0.084,0-0.156-0.022-0.217-0.066c-0.061-0.044-0.112-0.099-0.154-0.165l-0.224-0.399c0.392-0.378,0.814-0.661,1.267-0.847
		s0.955-0.28,1.505-0.28c0.396,0,0.749,0.065,1.057,0.196c0.308,0.131,0.567,0.312,0.777,0.546s0.369,0.516,0.476,0.847
		c0.107,0.332,0.161,0.695,0.161,1.092v4.536H129.819z M127.144,18.54c0.22,0,0.42-0.022,0.602-0.066
		c0.182-0.044,0.354-0.107,0.515-0.189s0.315-0.182,0.462-0.301c0.147-0.119,0.291-0.253,0.431-0.403v-1.47
		c-0.574,0.019-1.063,0.064-1.467,0.136c-0.403,0.073-0.732,0.167-0.987,0.284s-0.438,0.254-0.553,0.413
		c-0.115,0.159-0.172,0.336-0.172,0.532c0,0.187,0.03,0.348,0.091,0.483c0.061,0.136,0.144,0.247,0.249,0.333
		c0.105,0.086,0.229,0.149,0.371,0.189C126.829,18.52,126.981,18.54,127.144,18.54z"/>
	<path class="st3" d="M137.204,13.472c-0.037,0.051-0.075,0.091-0.112,0.119c-0.038,0.028-0.089,0.042-0.154,0.042
		c-0.07,0-0.147-0.029-0.231-0.087c-0.084-0.059-0.188-0.123-0.312-0.193c-0.124-0.07-0.275-0.134-0.455-0.192
		c-0.18-0.058-0.4-0.087-0.662-0.087c-0.35,0-0.658,0.062-0.924,0.186c-0.266,0.124-0.489,0.302-0.669,0.536
		s-0.315,0.516-0.406,0.847c-0.091,0.332-0.137,0.703-0.137,1.113c0,0.429,0.049,0.811,0.147,1.145
		c0.098,0.333,0.237,0.613,0.417,0.84s0.397,0.399,0.651,0.518c0.254,0.119,0.54,0.178,0.857,0.178c0.303,0,0.553-0.036,0.749-0.108
		c0.196-0.072,0.358-0.153,0.486-0.241c0.128-0.089,0.236-0.169,0.322-0.242c0.086-0.072,0.171-0.108,0.255-0.108
		c0.103,0,0.182,0.04,0.238,0.119l0.35,0.455c-0.154,0.191-0.329,0.355-0.525,0.49c-0.196,0.135-0.407,0.249-0.634,0.339
		c-0.226,0.091-0.463,0.158-0.71,0.2c-0.247,0.042-0.499,0.063-0.756,0.063c-0.443,0-0.855-0.082-1.235-0.245s-0.71-0.4-0.991-0.71
		c-0.28-0.311-0.5-0.692-0.658-1.145c-0.159-0.453-0.238-0.968-0.238-1.547c0-0.527,0.074-1.015,0.221-1.463
		c0.147-0.448,0.361-0.834,0.644-1.158c0.282-0.324,0.63-0.578,1.043-0.76c0.413-0.182,0.888-0.273,1.424-0.273
		c0.5,0,0.939,0.081,1.319,0.242s0.718,0.388,1.012,0.683L137.204,13.472z"/>
	<path class="st3" d="M141.13,19.415c-0.56,0-0.991-0.156-1.292-0.469c-0.301-0.312-0.452-0.763-0.452-1.351v-4.34h-0.854
		c-0.075,0-0.138-0.022-0.189-0.066c-0.051-0.044-0.077-0.113-0.077-0.207v-0.497l1.162-0.147l0.287-2.191
		c0.014-0.07,0.045-0.127,0.095-0.172c0.049-0.044,0.113-0.066,0.192-0.066h0.63v2.443h4.9v6.951h-1.246v-6.048h-3.654v4.256
		c0,0.299,0.072,0.521,0.217,0.665c0.145,0.145,0.332,0.217,0.56,0.217c0.131,0,0.244-0.018,0.34-0.052
		c0.095-0.035,0.178-0.074,0.249-0.116c0.07-0.042,0.129-0.081,0.178-0.115c0.049-0.035,0.092-0.053,0.129-0.053
		c0.065,0,0.124,0.04,0.175,0.119l0.364,0.595c-0.215,0.201-0.474,0.358-0.777,0.473S141.452,19.415,141.13,19.415z M145.841,9.937
		c0,0.122-0.024,0.235-0.074,0.34c-0.049,0.105-0.114,0.197-0.196,0.276c-0.082,0.08-0.176,0.143-0.284,0.189
		c-0.107,0.047-0.222,0.07-0.343,0.07c-0.122,0-0.234-0.023-0.339-0.07c-0.105-0.046-0.197-0.109-0.277-0.189
		c-0.079-0.079-0.142-0.171-0.189-0.276c-0.046-0.105-0.07-0.218-0.07-0.34c0-0.121,0.023-0.237,0.07-0.346
		c0.047-0.11,0.11-0.206,0.189-0.287c0.08-0.082,0.172-0.146,0.277-0.192c0.105-0.047,0.218-0.07,0.339-0.07
		c0.121,0,0.235,0.023,0.343,0.07c0.107,0.046,0.202,0.111,0.284,0.192s0.147,0.177,0.196,0.287
		C145.817,9.7,145.841,9.816,145.841,9.937z"/>
	<path class="st3" d="M146.751,12.212h1.015c0.103,0,0.187,0.025,0.252,0.077c0.065,0.052,0.109,0.112,0.133,0.182l1.799,4.564
		c0.056,0.173,0.105,0.341,0.147,0.504c0.042,0.164,0.082,0.327,0.119,0.49c0.037-0.164,0.077-0.327,0.119-0.49
		c0.042-0.163,0.093-0.331,0.154-0.504l1.82-4.564c0.028-0.075,0.074-0.136,0.14-0.186c0.065-0.049,0.143-0.073,0.231-0.073h0.973
		l-2.891,7.091h-1.12L146.751,12.212z"/>
	<path class="st3" d="M156.383,9.986c0,0.121-0.024,0.234-0.073,0.339c-0.049,0.105-0.115,0.198-0.196,0.28
		c-0.082,0.082-0.177,0.146-0.287,0.192c-0.11,0.046-0.226,0.07-0.347,0.07c-0.122,0-0.234-0.023-0.339-0.07
		c-0.105-0.047-0.197-0.111-0.277-0.192c-0.079-0.082-0.142-0.175-0.189-0.28c-0.046-0.105-0.07-0.218-0.07-0.339
		c0-0.122,0.023-0.237,0.07-0.347c0.047-0.109,0.11-0.205,0.189-0.287c0.08-0.082,0.172-0.146,0.277-0.192
		c0.105-0.046,0.218-0.07,0.339-0.07c0.121,0,0.237,0.023,0.347,0.07c0.109,0.047,0.205,0.111,0.287,0.192
		c0.082,0.082,0.147,0.178,0.196,0.287C156.359,9.749,156.383,9.864,156.383,9.986z M156.118,12.212v7.091h-1.246v-7.091H156.118z"
		/>
	<path class="st3" d="M160.338,19.415c-0.56,0-0.991-0.156-1.292-0.469c-0.301-0.312-0.452-0.763-0.452-1.351v-4.34h-0.854
		c-0.075,0-0.138-0.022-0.189-0.066c-0.051-0.044-0.077-0.113-0.077-0.207v-0.497l1.162-0.147l0.287-2.191
		c0.014-0.07,0.045-0.127,0.095-0.172c0.049-0.044,0.113-0.066,0.192-0.066h0.63v2.443h2.051v0.903h-2.051v4.256
		c0,0.299,0.072,0.521,0.217,0.665c0.145,0.145,0.332,0.217,0.56,0.217c0.131,0,0.244-0.018,0.34-0.052
		c0.095-0.035,0.178-0.074,0.249-0.116c0.07-0.042,0.129-0.081,0.178-0.115c0.049-0.035,0.092-0.053,0.129-0.053
		c0.065,0,0.124,0.04,0.175,0.119l0.364,0.595c-0.215,0.201-0.474,0.358-0.777,0.473S160.66,19.415,160.338,19.415z"/>
	<path class="st3" d="M165.343,21.396c-0.042,0.094-0.094,0.168-0.157,0.224c-0.063,0.056-0.16,0.084-0.291,0.084h-0.924
		l1.295-2.814l-2.926-6.678h1.078c0.107,0,0.192,0.027,0.255,0.08c0.063,0.054,0.106,0.113,0.129,0.179l1.897,4.466
		c0.038,0.107,0.072,0.211,0.105,0.312c0.033,0.101,0.061,0.205,0.084,0.312c0.061-0.21,0.131-0.42,0.21-0.63l1.841-4.459
		c0.028-0.075,0.076-0.136,0.144-0.186c0.067-0.049,0.144-0.073,0.228-0.073h0.987L165.343,21.396z"/>
	<path class="st3" d="M176.627,12.1c0.518,0,0.984,0.086,1.4,0.259c0.416,0.172,0.77,0.417,1.064,0.735s0.519,0.701,0.676,1.151
		c0.156,0.451,0.234,0.953,0.234,1.509c0,0.56-0.078,1.064-0.234,1.512c-0.157,0.448-0.382,0.831-0.676,1.148
		c-0.294,0.317-0.648,0.562-1.064,0.731c-0.416,0.17-0.882,0.256-1.4,0.256c-0.523,0-0.993-0.085-1.411-0.256
		c-0.417-0.17-0.773-0.414-1.067-0.731c-0.294-0.317-0.519-0.7-0.676-1.148c-0.156-0.448-0.234-0.952-0.234-1.512
		c0-0.556,0.078-1.058,0.234-1.509c0.157-0.45,0.382-0.834,0.676-1.151s0.65-0.562,1.067-0.735
		C175.634,12.186,176.104,12.1,176.627,12.1z M176.627,18.428c0.7,0,1.223-0.234,1.568-0.704c0.345-0.469,0.518-1.124,0.518-1.963
		c0-0.845-0.173-1.502-0.518-1.974c-0.345-0.471-0.868-0.707-1.568-0.707c-0.355,0-0.664,0.061-0.928,0.182
		c-0.264,0.122-0.483,0.296-0.658,0.525c-0.175,0.229-0.306,0.51-0.392,0.844s-0.129,0.71-0.129,1.13
		c0,0.84,0.174,1.495,0.521,1.963C175.389,18.193,175.917,18.428,176.627,18.428z"/>
	<path class="st3" d="M181.576,19.303v-7.091h0.714c0.135,0,0.229,0.025,0.28,0.077c0.051,0.052,0.086,0.14,0.105,0.266l0.077,1.078
		c0.224-0.485,0.5-0.865,0.83-1.138c0.329-0.273,0.729-0.409,1.2-0.409c0.149,0,0.293,0.016,0.431,0.049s0.26,0.084,0.368,0.154
		l-0.091,0.931c-0.028,0.117-0.098,0.175-0.21,0.175c-0.065,0-0.161-0.014-0.287-0.042c-0.126-0.028-0.268-0.042-0.427-0.042
		c-0.224,0-0.425,0.034-0.602,0.102c-0.177,0.068-0.335,0.166-0.473,0.294c-0.138,0.128-0.26,0.286-0.367,0.473
		c-0.107,0.187-0.206,0.401-0.294,0.644v4.48H181.576z"/>
	<path class="st3" d="M189.961,21.704v-9.492h0.749c0.177,0,0.287,0.086,0.329,0.259l0.105,0.84
		c0.303-0.368,0.651-0.665,1.043-0.889c0.392-0.224,0.84-0.336,1.344-0.336c0.411,0,0.781,0.078,1.113,0.234
		s0.614,0.387,0.847,0.693s0.413,0.685,0.539,1.138s0.189,0.973,0.189,1.561c0,0.522-0.07,1.009-0.21,1.459
		c-0.14,0.45-0.342,0.84-0.605,1.169c-0.264,0.329-0.586,0.588-0.966,0.777s-0.809,0.284-1.284,0.284
		c-0.434,0-0.807-0.073-1.117-0.217c-0.311-0.145-0.584-0.35-0.822-0.616v3.136H189.961z M193.125,13.094
		c-0.406,0-0.762,0.093-1.067,0.28c-0.306,0.187-0.587,0.451-0.843,0.791v3.43c0.224,0.308,0.472,0.525,0.745,0.651
		s0.578,0.189,0.914,0.189c0.663,0,1.171-0.235,1.526-0.707c0.355-0.471,0.532-1.143,0.532-2.016c0-0.462-0.041-0.859-0.123-1.19
		c-0.082-0.332-0.2-0.604-0.354-0.816c-0.154-0.212-0.343-0.367-0.567-0.465S193.41,13.094,193.125,13.094z"/>
	<path class="st3" d="M199.097,8.992v10.311h-1.246V8.992H199.097z"/>
	<path class="st3" d="M205.621,19.303c-0.122,0-0.215-0.02-0.28-0.06s-0.117-0.118-0.154-0.234l-0.14-0.665
		c-0.187,0.168-0.37,0.318-0.549,0.452c-0.18,0.133-0.367,0.245-0.56,0.336c-0.194,0.091-0.401,0.161-0.623,0.21
		c-0.222,0.049-0.468,0.073-0.738,0.073c-0.275,0-0.535-0.038-0.777-0.115s-0.454-0.192-0.633-0.347
		c-0.18-0.154-0.322-0.349-0.427-0.584c-0.105-0.235-0.157-0.515-0.157-0.836c0-0.28,0.077-0.549,0.231-0.809
		c0.154-0.259,0.403-0.489,0.749-0.689c0.345-0.201,0.795-0.365,1.351-0.494c0.555-0.128,1.236-0.202,2.044-0.22v-0.553
		c0-0.55-0.119-0.967-0.357-1.25c-0.238-0.282-0.586-0.423-1.043-0.423c-0.308,0-0.566,0.039-0.773,0.116
		c-0.208,0.077-0.388,0.163-0.539,0.259c-0.152,0.096-0.283,0.182-0.392,0.259c-0.11,0.077-0.218,0.116-0.326,0.116
		c-0.084,0-0.156-0.022-0.217-0.066c-0.061-0.044-0.112-0.099-0.154-0.165l-0.224-0.399c0.392-0.378,0.814-0.661,1.267-0.847
		s0.955-0.28,1.505-0.28c0.396,0,0.749,0.065,1.057,0.196c0.308,0.131,0.567,0.312,0.777,0.546s0.369,0.516,0.476,0.847
		c0.107,0.332,0.161,0.695,0.161,1.092v4.536H205.621z M202.946,18.54c0.22,0,0.42-0.022,0.602-0.066
		c0.182-0.044,0.354-0.107,0.515-0.189s0.315-0.182,0.462-0.301c0.147-0.119,0.291-0.253,0.431-0.403v-1.47
		c-0.574,0.019-1.063,0.064-1.467,0.136c-0.403,0.073-0.732,0.167-0.987,0.284s-0.438,0.254-0.553,0.413
		c-0.115,0.159-0.172,0.336-0.172,0.532c0,0.187,0.03,0.348,0.091,0.483c0.061,0.136,0.144,0.247,0.249,0.333
		c0.105,0.086,0.229,0.149,0.371,0.189C202.63,18.52,202.783,18.54,202.946,18.54z"/>
	<path class="st3" d="M213.005,13.472c-0.037,0.051-0.075,0.091-0.112,0.119c-0.038,0.028-0.089,0.042-0.154,0.042
		c-0.07,0-0.147-0.029-0.231-0.087c-0.084-0.059-0.188-0.123-0.312-0.193c-0.124-0.07-0.275-0.134-0.455-0.192
		c-0.18-0.058-0.4-0.087-0.662-0.087c-0.35,0-0.658,0.062-0.924,0.186c-0.266,0.124-0.489,0.302-0.669,0.536
		s-0.315,0.516-0.406,0.847c-0.091,0.332-0.137,0.703-0.137,1.113c0,0.429,0.049,0.811,0.147,1.145
		c0.098,0.333,0.237,0.613,0.417,0.84s0.397,0.399,0.651,0.518c0.254,0.119,0.54,0.178,0.857,0.178c0.303,0,0.553-0.036,0.749-0.108
		c0.196-0.072,0.358-0.153,0.486-0.241c0.128-0.089,0.236-0.169,0.322-0.242c0.086-0.072,0.171-0.108,0.255-0.108
		c0.103,0,0.182,0.04,0.238,0.119l0.35,0.455c-0.154,0.191-0.329,0.355-0.525,0.49c-0.196,0.135-0.407,0.249-0.634,0.339
		c-0.226,0.091-0.463,0.158-0.71,0.2c-0.247,0.042-0.499,0.063-0.756,0.063c-0.443,0-0.855-0.082-1.235-0.245s-0.71-0.4-0.991-0.71
		c-0.28-0.311-0.5-0.692-0.658-1.145c-0.159-0.453-0.238-0.968-0.238-1.547c0-0.527,0.074-1.015,0.221-1.463
		c0.147-0.448,0.361-0.834,0.644-1.158c0.282-0.324,0.63-0.578,1.043-0.76c0.413-0.182,0.888-0.273,1.424-0.273
		c0.5,0,0.939,0.081,1.319,0.242s0.718,0.388,1.012,0.683L213.005,13.472z"/>
	<path class="st3" d="M217.535,12.1c0.424,0,0.818,0.071,1.179,0.214c0.362,0.142,0.674,0.348,0.938,0.616
		c0.264,0.269,0.47,0.6,0.62,0.994s0.224,0.843,0.224,1.347c0,0.196-0.021,0.327-0.063,0.392c-0.042,0.065-0.122,0.098-0.238,0.098
		h-4.739c0.009,0.448,0.07,0.838,0.182,1.169c0.112,0.332,0.266,0.608,0.462,0.83s0.429,0.387,0.7,0.497
		c0.271,0.109,0.574,0.165,0.91,0.165c0.312,0,0.582-0.036,0.809-0.109c0.226-0.072,0.421-0.15,0.584-0.234s0.3-0.162,0.41-0.234
		c0.109-0.072,0.204-0.108,0.283-0.108c0.103,0,0.182,0.04,0.238,0.119l0.35,0.455c-0.154,0.187-0.338,0.349-0.553,0.487
		s-0.444,0.25-0.689,0.339s-0.498,0.155-0.76,0.2c-0.261,0.044-0.52,0.066-0.777,0.066c-0.49,0-0.941-0.083-1.354-0.249
		s-0.77-0.408-1.071-0.728c-0.301-0.32-0.536-0.715-0.704-1.187s-0.252-1.013-0.252-1.624c0-0.495,0.076-0.957,0.228-1.386
		c0.151-0.429,0.37-0.801,0.654-1.116s0.632-0.562,1.043-0.742S217.021,12.1,217.535,12.1z M217.562,13.017
		c-0.602,0-1.076,0.174-1.421,0.521s-0.56,0.83-0.644,1.446h3.878c0-0.29-0.041-0.554-0.123-0.794
		c-0.082-0.241-0.201-0.448-0.357-0.623c-0.156-0.175-0.346-0.311-0.57-0.406S217.847,13.017,217.562,13.017z"/>
</g>
</svg>